<svg xmlns="http://www.w3.org/2000/svg" version="1.1" xmlns:xlink="http://www.w3.org/1999/xlink" viewBox="0 0 200 200"><rect width="200" height="200" fill="url('#gradient')"></rect><defs><linearGradient id="gradient" gradientTransform="rotate(45 0.5 0.5)"><stop offset="0%" stop-color="#3f616f"></stop><stop offset="100%" stop-color="#1a3441"></stop></linearGradient></defs><g><g fill="#e3ab77" transform="matrix(6.589917769038255,0,0,6.589917769038255,7.676463712953776,146.19704092490832)" stroke="#ffffff" stroke-width="0.45"><path d="M6.74-4.46L6.74-14.22L10.16-14.22L10.16-4.46Q10.16-3.11 9.53-2.04Q8.90-0.98 7.77-0.39Q6.64 0.20 5.25 0.20L5.25 0.20Q2.93 0.20 1.64-0.98Q0.35-2.15 0.35-4.30L0.35-4.30L3.79-4.30Q3.79-3.32 4.13-2.88Q4.46-2.44 5.25-2.44L5.25-2.44Q5.97-2.44 6.35-2.97Q6.74-3.51 6.74-4.46L6.74-4.46ZM12.31-14.22L16.82-14.22L19.99-4.33L23.15-14.22L27.67-14.22L27.67 0L24.23 0L24.23-3.32L24.56-10.12L21.12 0L18.86 0L15.41-10.13L15.74-3.32L15.74 0L12.31 0L12.31-14.22Z"></path></g></g></svg>